
<svg width="512" height="512" xmlns="http://www.w3.org/2000/svg">
  <defs>
    <linearGradient id="gradient" x1="0%" y1="0%" x2="100%" y2="100%">
      <stop offset="0%" style="stop-color:#00ffa3;stop-opacity:1" />
      <stop offset="100%" style="stop-color:#00d4ff;stop-opacity:1" />
    </linearGradient>
    <filter id="shadow">
      <feGaussianBlur in="SourceAlpha" stdDeviation="3"/>
      <feOffset dx="0" dy="2" result="offsetblur"/>
      <feComponentTransfer>
        <feFuncA type="linear" slope="0.3"/>
      </feComponentTransfer>
      <feMerge> 
        <feMergeNode/>
        <feMergeNode in="SourceGraphic"/> 
      </feMerge>
    </filter>
  </defs>
  
  <!-- 배경 -->
  <rect width="512" height="512" rx="112" fill="#0f0f0f"/>
  
  <!-- 러너 실루엣 -->
  <g filter="url(#shadow)" transform="translate(256, 256)">
    <!-- 몸통 -->
    <ellipse cx="0" cy="-20" rx="40" ry="60" fill="url(#gradient)"/>
    
    <!-- 머리 -->
    <circle cx="0" cy="-100" r="35" fill="url(#gradient)"/>
    
    <!-- 왼쪽 팔 (앞으로) -->
    <path d="M -30 -40 Q -60 -20 -70 20" stroke="url(#gradient)" stroke-width="18" fill="none" stroke-linecap="round"/>
    
    <!-- 오른쪽 팔 (뒤로) -->
    <path d="M 30 -40 Q 60 -20 70 -80" stroke="url(#gradient)" stroke-width="18" fill="none" stroke-linecap="round"/>
    
    <!-- 왼쪽 다리 (뒤로) -->
    <path d="M -15 20 Q -20 60 -30 100" stroke="url(#gradient)" stroke-width="20" fill="none" stroke-linecap="round"/>
    
    <!-- 오른쪽 다리 (앞으로, 들어올림) -->
    <path d="M 15 20 Q 40 50 50 80 Q 55 95 60 110" stroke="url(#gradient)" stroke-width="20" fill="none" stroke-linecap="round"/>
  </g>
  
  <!-- 속도 라인 효과 -->
  <g opacity="0.4">
    <line x1="100" y1="200" x2="50" y2="200" stroke="#00ffa3" stroke-width="4" stroke-linecap="round"/>
    <line x1="110" y1="240" x2="60" y2="240" stroke="#00ffa3" stroke-width="3" stroke-linecap="round"/>
    <line x1="105" y1="280" x2="55" y2="280" stroke="#00ffa3" stroke-width="3" stroke-linecap="round"/>
  </g>
  
  <!-- AT 텍스트 (하단) -->
  <text x="256" y="440" font-family="Arial, sans-serif" font-size="60" font-weight="bold" 
        fill="url(#gradient)" text-anchor="middle">AT</text>
</svg>
